<!-- Generated by IcoMoon.io -->
<svg version="1.1" xmlns="http://www.w3.org/2000/svg" width="512" height="512" viewBox="0 0 512 512">
<title></title>
<g id="icomoon-ignore">
</g>
<path d="M426.666 469.334h-42.666v-106.666h42.666zM128 469.334h-42.666v-106.666h42.666zM490.666 85.334v192c0 11.315-4.495 22.168-12.497 30.17s-18.855 12.497-30.169 12.497h-384c-11.316 0-22.169-4.495-30.17-12.497s-12.497-18.855-12.497-30.169v-192c0-11.316 4.495-22.169 12.497-30.17s18.854-12.497 30.17-12.497h384c11.315 0 22.168 4.495 30.169 12.497s12.497 18.854 12.497 30.17zM448 85.334h-384v192h384zM426.666 128h-106.666v42.666h106.666zM384 192h-64v42.666h64zM298.666 234.667h-213.333l58.24-77.653 42.667 58.24 15.573-11.52-26.88-36.906 36.48-48.427 87.254 116.267z"></path>
</svg>
