<!-- Generated by IcoMoon.io -->
<svg version="1.1" xmlns="http://www.w3.org/2000/svg" width="512" height="512" viewBox="0 0 512 512">
<title></title>
<g id="icomoon-ignore">
</g>
<path d="M105.81 63.148v385.707h300.373v-323.038l-62.669-62.67h-237.703zM370.233 31.941c-6.233-6.238-14.707-9.745-23.526-9.753h-248.576c-8.826 0-17.291 3.506-23.532 9.748zM370.233 31.941l67.149 67.148c0.002 0.003-0.002-0.003 0 0 3.1 3.099 5.568 6.788 7.24 10.84 1.671 4.043 2.529 8.376 2.522 12.75 0 0.013 0 0.026 0 0.040l-20.48-0.050 20.48 0.011v333.857c0 4.37-0.86 8.697-2.532 12.736-1.674 4.037-4.124 7.705-7.214 10.796s-6.761 5.543-10.798 7.214c-4.037 1.671-8.366 2.534-12.736 2.534h-315.733c-4.37 0-8.698-0.863-12.736-2.534s-7.707-4.124-10.797-7.214c-3.090-3.090-5.541-6.759-7.214-10.796-1.672-4.039-2.534-8.366-2.534-12.736v-401.067c0-8.826 3.507-17.291 9.748-23.532zM341.271 60.904c-0.005-0.002 0.002 0.002 0 0z"></path>
<path d="M341.325 115.195v-64.981c0.002-1.492 0.448-2.95 1.277-4.188s2.007-2.206 3.387-2.776c1.377-0.571 2.896-0.72 4.357-0.43 1.464 0.291 2.808 1.008 3.863 2.061l70.231 70.23c1.063 1.052 1.789 2.397 2.087 3.864s0.149 2.989-0.425 4.371c-0.571 1.382-1.541 2.564-2.788 3.391s-2.711 1.266-4.209 1.259h-64.981c-3.394 0-6.651-1.349-9.050-3.749-2.401-2.4-3.75-5.656-3.75-9.051v0z"></path>
<path d="M338.161 24.331c-5.115 2.117-9.49 5.703-12.57 10.304-3.082 4.6-4.731 10.011-4.741 15.547v65.018c0 8.826 3.507 17.291 9.748 23.533s14.704 9.748 23.531 9.748h64.981v-20.48l-0.103 20.48c0.023 0 0.046 0 0.069 0 5.543 0.014 10.962-1.615 15.577-4.684 4.636-3.081 8.248-7.472 10.375-12.615 2.13-5.142 2.678-10.802 1.575-16.258-1.096-5.431-3.779-10.414-7.708-14.32l-70.219-70.219c-3.92-3.91-8.911-6.572-14.341-7.649-5.433-1.078-11.059-0.523-16.176 1.595zM361.81 81.443l26.076 26.077h-26.076v-26.077z"></path>
</svg>
