<!-- Generated by IcoMoon.io -->
<svg version="1.1" xmlns="http://www.w3.org/2000/svg" width="512" height="512" viewBox="0 0 512 512">
<title></title>
<g id="icomoon-ignore">
</g>
<path d="M358.303 322.030l0.015 1.572c0.026 21.747-7.793 42.709-21.906 58.731l0.048-0.067c-14.7 16.868-34.583 27.878-56.228 31.132l-0.51 0.069v40.281c0 1.872-0.712 3.663-1.981 4.985-1.27 1.324-2.99 2.066-4.784 2.066h-29.868c-1.857-0.023-3.633-0.801-4.947-2.168-1.314-1.37-2.061-3.218-2.083-5.154v-40.010c-9.873-1.375-19.575-3.858-28.934-7.409l0.966 0.325c-13.981-4.872-27.099-12.103-38.83-21.404l0.327 0.256c-3.583-2.701-7.024-5.601-10.305-8.688l0.114 0.103c-1.824-1.82-3.102-3.185-3.834-4.096-1.185-1.226-1.884-2.873-1.959-4.611s0.477-3.443 1.55-4.777l-0.017 0.018 22.594-30.861c0.601-0.807 1.361-1.467 2.228-1.938s1.823-0.743 2.802-0.793h0.017c0.971-0.187 1.973-0.092 2.898 0.272s1.735 0.986 2.345 1.795l0.017 0.015 0.426 0.445c14.814 14.128 32.944 23.938 52.56 28.437l0.754 0.154c4.882 1.159 10.486 1.825 16.236 1.825l1.017 0.018c11.32 0 21.806-3.687 30.441-9.969l-0.179 0.12c4.354-3.067 7.882-7.248 10.245-12.139 2.363-4.889 3.484-10.332 3.254-15.803v0.069c0-4.49-1.229-8.671-3.341-12.206l0.048 0.103c-1.997-3.522-4.462-6.736-7.324-9.541l-0.015-0.015c-3.81-3.328-7.998-6.154-12.47-8.414l-0.358-0.171c-5.854-3.118-10.663-5.56-14.418-7.322-3.758-1.764-9.607-4.24-17.548-7.426-5.702-2.435-10.202-4.342-13.5-5.716-3.298-1.377-7.799-3.397-13.5-6.060-5.702-2.665-10.273-5.026-13.714-7.084-3.44-2.061-7.575-4.764-12.403-8.109-4.23-2.839-8.185-6.097-11.813-9.73l0.017 0.017c-3.292-3.47-6.41-7.117-9.339-10.924l-0.213-0.273c-3.102-3.918-5.677-8.26-7.651-12.904l-0.131-0.358c-1.903-4.714-3.411-9.591-4.506-14.577l-0.114-0.614c-1.254-5.722-1.88-11.575-1.868-17.445v-0.922c0-21.336 8.208-40.692 21.529-54.791l-0.017 0.017c14.847-16.081 34.249-26.782 55.362-30.536l0.59-0.085v-41.289c0-1.997 0.803-3.806 2.081-5.087 0.631-0.685 1.39-1.231 2.228-1.603s1.742-0.565 2.654-0.565h29.934c3.735 0 6.766 3.158 6.766 7.050v40.505c9.011 0.99 17.236 2.85 25.116 5.513l-0.868-0.257c7.522 2.39 13.844 5.001 19.922 8.040l-0.85-0.376c5.373 2.782 9.943 5.632 14.269 8.808l-0.327-0.239c4.37 3.209 7.219 5.416 8.553 6.623 1.331 1.207 2.43 2.27 3.292 3.192 1.18 1.057 1.94 2.53 2.14 4.137s-0.176 3.233-1.058 4.569l0.015-0.017-17.728 33.387c-0.443 1.026-1.144 1.908-2.030 2.552s-1.923 1.024-3 1.101h-0.015c-1.039 0.226-2.117 0.198-3.146-0.081-1.026-0.279-1.981-0.799-2.786-1.524h0.018c-0.438-0.455-1.498-1.365-3.18-2.731s-4.534-3.386-8.553-6.060c-3.899-2.605-7.954-4.947-12.139-7.016l-0.688-0.307c-5.043-2.416-10.286-4.352-15.662-5.786l-0.688-0.154c-6.108-1.742-12.411-2.626-18.745-2.629h-0.015c-12.134-0.579-24.125 2.916-34.21 9.969l0.213-0.137c-5.577 3.861-9.729 9.584-11.772 16.228s-1.855 13.815 0.532 20.333l-0.065-0.205c1.507 3.755 3.703 6.93 6.456 9.473l0.033 0.017c2.638 2.577 5.456 5.053 8.405 7.357l0.262 0.188c3.523 2.526 7.57 4.899 11.813 6.879l0.492 0.205c5.483 2.662 9.907 4.722 13.27 6.179s8.486 3.55 15.368 6.281c7.757 3.049 13.68 5.451 17.776 7.203s9.656 4.421 16.681 8.006c5.916 2.894 11.618 6.244 17.055 10.018l-0.476-0.307c5.079 3.755 9.502 7.511 13.714 11.522l-0.098-0.103c4.539 4.13 8.404 8.909 11.484 14.252l0.149 0.274c2.719 5.002 5.061 10.821 6.766 16.914l0.149 0.581c1.784 6.231 2.8 13.399 2.8 20.808v0.683l-0.098-0.087z"></path>
</svg>
