<!-- Generated by IcoMoon.io -->
<svg version="1.1" xmlns="http://www.w3.org/2000/svg" width="732" height="512" viewBox="0 0 732 512">
<title></title>
<g id="icomoon-ignore">
</g>
<path d="M189.367 147.794c9.266-13.238 27.508-16.457 40.746-7.191l135.604 94.922 135.603-94.922c13.235-9.266 31.477-6.047 40.744 7.19s6.049 31.48-7.19 40.746l-152.382 106.667c-10.072 7.051-23.481 7.051-33.555 0l-152.381-106.666c-13.238-9.267-16.457-27.509-7.191-40.746z"></path>
<path d="M121.906 71.925c-8.406 0-16.468 3.34-22.412 9.284s-9.284 14.006-9.284 22.412v304.762c0 8.408 3.34 16.468 9.284 22.411 5.944 5.947 14.006 9.286 22.412 9.286h487.619c8.408 0 16.468-3.339 22.411-9.286 5.947-5.943 9.285-14.003 9.285-22.411v-304.762c0-8.406-3.339-16.468-9.285-22.412-5.943-5.944-14.003-9.284-22.411-9.284h-487.619zM58.118 39.833c16.917-16.918 39.863-26.422 63.788-26.422h487.619c23.925 0 46.87 9.504 63.788 26.422s26.423 39.862 26.423 63.788v304.762c0 23.925-9.505 46.87-26.423 63.788s-39.863 26.423-63.788 26.423h-487.619c-23.925 0-46.87-9.505-63.788-26.423s-26.422-39.863-26.422-63.788v-304.762c0-23.925 9.504-46.87 26.422-63.788z"></path>
</svg>
