<!-- Generated by IcoMoon.io -->
<svg version="1.1" xmlns="http://www.w3.org/2000/svg" width="512" height="512" viewBox="0 0 512 512">
<title>House</title>
<g id="icomoon-ignore">
</g>
<path d="M339.712 64.819h0.045c34.263 0 66.947 13.99 90.886 38.704l0.026 0.027c23.784 24.664 37.053 57.546 36.991 91.752 0.067 34.205-13.191 67.088-36.969 91.756l-0.039 0.039c-15.436 15.913-30.87 32.207-46.395 48.599-31.632 33.397-63.65 67.201-96.86 99.002l-0.106 0.103c-18.086 17.023-46.689 16.433-64.012-1.411l-141.935-146.273c-49.324-50.835-49.34-132.732-0.036-183.568 11.734-12.233 25.838-21.969 41.453-28.62 15.632-6.659 32.458-10.091 49.459-10.091s33.826 3.432 49.458 10.091c12.571 5.355 24.161 12.706 34.322 21.751 10.171-9.021 21.756-16.358 34.314-21.71 15.614-6.655 32.416-10.106 49.398-10.151zM450.56 195.305l-17.101-0.036c0.053-25.303-9.752-49.661-27.39-67.959-17.574-18.138-41.416-28.285-66.29-28.291-12.401 0.035-24.664 2.557-36.055 7.412-11.399 4.858-21.687 11.951-30.251 20.847l-0.062 0.066-5.157 5.3c-3.216 3.305-7.631 5.172-12.241 5.176-4.612 0.005-9.030-1.854-12.251-5.153l-5.288-5.415c-8.536-8.909-18.811-16.007-30.2-20.858-11.391-4.852-23.657-7.355-36.056-7.355s-24.665 2.503-36.055 7.355c-11.391 4.852-21.664 11.95-30.201 20.858l-0.076 0.079c-36.459 37.562-36.463 98.385 0.002 135.969zM105.889 263.301l141.929 146.264c4.26 4.382 11.467 4.584 15.991 0.368 32.604-31.226 63.574-63.928 94.829-96.932 15.665-16.541 31.402-33.157 47.452-49.703 17.627-18.299 27.427-42.656 27.37-67.955l17.101-0.038z"></path>
</svg>
