<!-- Generated by IcoMoon.io -->
<svg version="1.1" xmlns="http://www.w3.org/2000/svg" width="32" height="32" viewBox="0 0 32 32">
<title>heart-fill</title>
<path d="M21.232 4.096h0.003c2.129 0 4.16 0.869 5.648 2.405l0.002 0.002c1.479 1.533 2.303 3.577 2.3 5.703 0.004 2.126-0.82 4.17-2.298 5.704l-0.002 0.002c-0.965 0.995-1.93 2.014-2.901 3.039-1.976 2.087-3.976 4.198-6.051 6.185l-0.006 0.006c-1.113 1.047-2.872 1.011-3.938-0.087l-8.871-9.142c-3.066-3.16-3.067-8.251-0.002-11.411 0.729-0.76 1.606-1.365 2.576-1.779s2.017-0.627 3.074-0.627 2.102 0.213 3.074 0.627c0.793 0.338 1.524 0.804 2.163 1.378 0.639-0.573 1.369-1.038 2.162-1.376 0.97-0.414 2.014-0.628 3.070-0.631zM28.16 12.207l-1.024-0.002c0.003-1.593-0.614-3.127-1.725-4.279-1.107-1.142-2.608-1.781-4.175-1.781-0.781 0.002-1.553 0.161-2.271 0.467s-1.366 0.753-1.905 1.313l-0.004 0.004-0.322 0.331c-0.193 0.198-0.457 0.31-0.733 0.31s-0.541-0.111-0.734-0.309l-0.33-0.338c-0.538-0.561-1.185-1.008-1.902-1.314s-1.49-0.463-2.271-0.463-1.554 0.158-2.271 0.463c-0.717 0.306-1.365 0.753-1.902 1.314l-0.005 0.005c-2.296 2.365-2.296 6.194 0 8.56zM6.586 16.488l8.871 9.142c0 0-0 0 0 0 0.283 0.292 0.762 0.305 1.062 0.024 2.039-1.953 3.976-3.998 5.93-6.061 0.979-1.034 1.962-2.072 2.964-3.105 1.11-1.152 1.727-2.686 1.723-4.279l1.024-0.002z"></path>
<path d="M28.16 12.207c0.004 1.86-0.717 3.65-2.011 4.993-2.968 3.060-5.848 6.25-8.926 9.197-0.707 0.665-1.826 0.641-2.501-0.054l-8.871-9.142c-2.681-2.764-2.681-7.224 0-9.987 0.634-0.661 1.396-1.188 2.24-1.547s1.754-0.545 2.672-0.545c0.919 0 1.828 0.186 2.672 0.545s1.607 0.886 2.24 1.547l0.323 0.331 0.322-0.331c0.635-0.66 1.398-1.185 2.242-1.545s1.753-0.546 2.671-0.549c1.848 0 3.615 0.754 4.913 2.094 1.295 1.343 2.016 3.132 2.013 4.993z"></path>
<path d="M21.232 4.096h0.003c2.129 0 4.16 0.869 5.648 2.405l0.002 0.002c1.479 1.533 2.303 3.577 2.3 5.703 0.004 2.126-0.82 4.17-2.298 5.704l-0.002 0.002c-0.965 0.995-1.93 2.014-2.901 3.039-1.976 2.087-3.976 4.198-6.051 6.185l-0.006 0.006c-1.113 1.047-2.872 1.011-3.938-0.087l-8.871-9.142c-3.066-3.16-3.067-8.251-0.002-11.411 0.729-0.76 1.606-1.365 2.576-1.779s2.017-0.627 3.074-0.627 2.102 0.213 3.074 0.627c0.793 0.338 1.524 0.804 2.163 1.378 0.639-0.573 1.369-1.038 2.162-1.376 0.97-0.414 2.014-0.628 3.070-0.631zM28.16 12.207l-1.024-0.002c0.003-1.593-0.614-3.127-1.725-4.279-1.107-1.142-2.608-1.781-4.175-1.781-0.781 0.002-1.553 0.161-2.271 0.467s-1.366 0.753-1.905 1.313l-0.004 0.004-0.322 0.331c-0.193 0.198-0.457 0.31-0.733 0.31s-0.541-0.111-0.734-0.309l-0.33-0.338c-0.538-0.561-1.185-1.008-1.902-1.314s-1.49-0.463-2.271-0.463-1.554 0.158-2.271 0.463c-0.717 0.306-1.365 0.753-1.902 1.314l-0.005 0.005c-2.296 2.365-2.296 6.194 0 8.56zM6.586 16.488l8.871 9.142c0 0-0 0 0 0 0.283 0.292 0.762 0.305 1.062 0.024 2.039-1.953 3.976-3.998 5.93-6.061 0.979-1.034 1.962-2.072 2.964-3.105 1.11-1.152 1.727-2.686 1.723-4.279l1.024-0.002z"></path>
</svg>
