<!-- Generated by IcoMoon.io -->
<svg version="1.1" xmlns="http://www.w3.org/2000/svg" width="32" height="32" viewBox="0 0 32 32">
<title>home-fill</title>
<path d="M19.2 27.647h1.64c0.453 0 1.145-0.086 1.836-0.278 0.672-0.187 1.49-0.514 2.067-1.086 0.375-0.372 0.688-0.685 1.133-1.426l0.019-0.032c0.254-0.423 0.433-0.721 0.596-1.193s0.22-0.915 0.3-1.547l0.959-7.543c0.005-0.040 0.008-0.081 0.008-0.121 0-1.397-0.65-2.713-1.759-3.567l-7.172-5.531h-5.656l-7.172 5.531c-1.109 0.854-1.759 2.17-1.759 3.567 0 0.040 0.003 0.081 0.008 0.121l0.959 7.543c0.080 0.632 0.136 1.075 0.3 1.547s0.342 0.77 0.596 1.193l0.019 0.032c0.444 0.741 0.758 1.055 1.133 1.426 0.577 0.573 1.395 0.899 2.067 1.086 0.691 0.192 1.383 0.278 1.836 0.278h1.642v-3.967c0-0.595 0-0.892 0.049-1.139 0.202-1.016 0.996-1.809 2.011-2.011 0.247-0.049 0.545-0.049 1.139-0.049s0.892 0 1.139 0.049c1.016 0.202 1.809 0.996 2.011 2.011 0.049 0.247 0.049 0.545 0.049 1.139v3.967zM13.171 5.323c0.798-0.615 1.779-0.949 2.788-0.949l0.040 0v0.949l-2.828 0zM18.827 5.323c-0.798-0.615-1.779-0.949-2.788-0.949l-0.040 0v0.949l2.828 0z"></path>
</svg>
