<!-- Generated by IcoMoon.io -->
<svg version="1.1" xmlns="http://www.w3.org/2000/svg" width="32" height="32" viewBox="0 0 32 32">
<title>House</title>
<path d="M15.999 6.358v-1.086l-2.867 0-7.172 5.531c-1.124 0.866-1.784 2.201-1.784 3.618 0 0.043 0.003 0.086 0.008 0.129l0.959 7.546c0.080 0.629 0.137 1.079 0.303 1.557s0.347 0.781 0.601 1.203l0.020 0.033c0.448 0.748 0.766 1.065 1.143 1.439 0.589 0.584 1.419 0.915 2.095 1.103 0.587 0.163 1.175 0.251 1.62 0.274 0.001 0.003 0.002 0.005 0.003 0.008h1.872v-4.032c0-0.595 0-0.892 0.049-1.139 0.202-1.016 0.996-1.809 2.011-2.011 0.247-0.049 0.545-0.049 1.139-0.049s0.892 0 1.139 0.049c1.016 0.202 1.809 0.996 2.011 2.011 0.049 0.247 0.049 0.545 0.049 1.139v4.032h1.872c0.001-0.003 0.002-0.005 0.003-0.008 0.445-0.024 1.032-0.111 1.618-0.274 0.676-0.188 1.506-0.519 2.095-1.103 0.377-0.373 0.694-0.691 1.143-1.439l0.020-0.033c0.253-0.422 0.435-0.725 0.601-1.203s0.223-0.928 0.302-1.557l0.959-7.546c0.006-0.043 0.008-0.086 0.008-0.129 0-1.417-0.66-2.751-1.784-3.618l-7.172-5.531-2.867-0v1.086l0.040-0c0.572 0 1.127 0.189 1.576 0.536l7.173 5.531c0.608 0.468 0.967 1.18 0.985 1.936l-0.941 7.4c-0.093 0.732-0.127 0.966-0.216 1.222-0.091 0.263-0.171 0.402-0.441 0.853-0.32 0.535-0.505 0.718-0.816 1.026l-0.012 0.012c-0.218 0.216-0.644 0.429-1.202 0.584-0.325 0.091-0.641 0.147-0.897 0.177v-2.594c0-1.692-0.751-2.946-1.811-3.71-0.956-0.689-2.042-0.898-2.797-0.898h-1.28c-1.692 0-2.946 0.751-3.71 1.811-0.688 0.956-0.898 2.042-0.898 2.797v2.594c-0.256-0.030-0.572-0.087-0.899-0.178-0.558-0.155-0.985-0.368-1.202-0.584l-0.012-0.012c-0.311-0.308-0.496-0.491-0.816-1.026-0.27-0.451-0.35-0.589-0.441-0.853-0.089-0.256-0.123-0.49-0.216-1.222l-0.941-7.4c0.018-0.756 0.377-1.468 0.985-1.936l7.173-5.531c0.45-0.347 1.004-0.536 1.576-0.536l0.040 0zM15.999 5.272v-0.962l-0.040-0c-1.023 0-2.018 0.338-2.827 0.962l2.867-0zM15.999 5.272v-0.962l0.040-0c1.023 0 2.018 0.338 2.827 0.962l-2.867-0z"></path>
</svg>
