<!-- Generated by IcoMoon.io -->
<svg version="1.1" xmlns="http://www.w3.org/2000/svg" width="32" height="32" viewBox="0 0 32 32">
<title>horizontal</title>
<path fill="#a1a5c1" opacity="0.5" d="M0 14.223c0-2.946 2.388-5.333 5.333-5.333h21.333c2.946 0 5.333 2.388 5.333 5.333v3.556c0 2.946-2.388 5.333-5.333 5.333h-21.333c-2.946 0-5.333-2.388-5.333-5.333v-3.556z"></path>
<path fill="#a1a5c1" opacity="0.5" d="M0 3.555c0-0.982 0.796-1.778 1.778-1.778h28.444c0.982 0 1.778 0.796 1.778 1.778v0c0 0.982-0.796 1.778-1.778 1.778h-28.444c-0.982 0-1.778-0.796-1.778-1.778v0z"></path>
<path fill="#a1a5c1" opacity="0.5" d="M0 28.445c0-0.982 0.796-1.778 1.778-1.778h28.444c0.982 0 1.778 0.796 1.778 1.778v0c0 0.982-0.796 1.778-1.778 1.778h-28.444c-0.982 0-1.778-0.796-1.778-1.778v0z"></path>
</svg>
