<!-- Generated by IcoMoon.io -->
<svg version="1.1" xmlns="http://www.w3.org/2000/svg" width="32" height="32" viewBox="0 0 32 32">
<title>horizontal-active</title>
<path fill="#252b5c" d="M5.333 8.889h21.333c2.946 0 5.333 2.388 5.333 5.333v3.556c0 2.946-2.388 5.333-5.333 5.333h-21.333c-2.946 0-5.333-2.388-5.333-5.333v-3.556c0-2.946 2.388-5.333 5.333-5.333z"></path>
<path fill="#a1a5c1" d="M1.778 1.777h28.444c0.982 0 1.778 0.796 1.778 1.778v0c0 0.982-0.796 1.778-1.778 1.778h-28.444c-0.982 0-1.778-0.796-1.778-1.778v0c0-0.982 0.796-1.778 1.778-1.778z"></path>
<path fill="#a1a5c1" d="M1.778 26.667h28.444c0.982 0 1.778 0.796 1.778 1.778v0c0 0.982-0.796 1.778-1.778 1.778h-28.444c-0.982 0-1.778-0.796-1.778-1.778v0c0-0.982 0.796-1.778 1.778-1.778z"></path>
</svg>
