<!-- Generated by IcoMoon.io -->
<svg version="1.1" xmlns="http://www.w3.org/2000/svg" width="512" height="512" viewBox="0 0 512 512">
<title></title>
<g id="icomoon-ignore">
</g>
<path d="M255.998 58.663c-41.020 0-80.36 16.295-109.366 45.301s-45.301 68.346-45.301 109.366c0 19.354 8.993 44.176 24.609 71.911 15.375 27.308 36.083 55.57 57.114 81.308 20.982 25.68 42.007 48.514 57.809 64.945 5.868 6.101 11.003 11.305 15.135 15.434 4.132-4.13 9.267-9.334 15.134-15.434 15.803-16.43 36.828-39.266 57.81-64.945 21.031-25.738 41.738-54 57.113-81.308 15.616-27.735 24.61-52.557 24.61-71.911 0-41.020-16.295-80.36-45.302-109.366-29.005-29.006-68.344-45.301-109.365-45.301zM255.998 469.33c-11.006 11.612-11.008 11.61-11.012 11.607l-0.039-0.036-0.106-0.103-0.393-0.374-1.484-1.428c-1.289-1.244-3.163-3.070-5.54-5.414-4.752-4.692-11.517-11.476-19.625-19.909-16.198-16.842-37.84-40.338-59.525-66.877-21.636-26.478-43.593-56.325-60.219-85.854-16.385-29.099-28.725-59.84-28.725-87.612 0-49.507 19.666-96.987 54.673-131.994s82.487-54.673 131.994-54.673c49.507 0 96.988 19.666 131.993 54.673 35.008 35.007 54.674 82.487 54.674 131.994 0 27.772-12.342 58.512-28.726 87.612-16.625 29.529-38.582 59.377-60.219 85.855-21.683 26.539-43.325 50.035-59.522 66.877-8.108 8.433-14.873 15.216-19.625 19.909-2.378 2.345-4.252 4.17-5.54 5.414l-1.485 1.428-0.394 0.374-0.105 0.103-0.031 0.028c-0.002 0.002-0.013 0.013-11.020-11.599zM255.998 469.33l11.021 11.599-11.020 10.445-11.012-10.437 11.012-11.607z"></path>
<path d="M256 230.4c6.789 0 13.302-2.697 18.102-7.498s7.498-11.313 7.498-18.102c0-6.79-2.698-13.301-7.498-18.102s-11.313-7.498-18.102-7.498c-6.79 0-13.301 2.697-18.102 7.498s-7.498 11.313-7.498 18.102c0 6.79 2.697 13.301 7.498 18.102s11.313 7.498 18.102 7.498v0z"></path>
<path d="M226.584 175.385c7.802-7.802 18.382-12.185 29.416-12.185s21.614 4.383 29.414 12.185c7.803 7.802 12.185 18.382 12.185 29.416s-4.382 21.614-12.185 29.416c-7.8 7.802-18.381 12.185-29.415 12.185s-21.614-4.383-29.416-12.185-12.184-18.382-12.184-29.416c0-11.033 4.383-21.614 12.185-29.416zM256 214.4c2.547 0 4.987-1.012 6.789-2.812 1.8-1.8 2.811-4.242 2.811-6.788s-1.011-4.988-2.811-6.788c-1.802-1.8-4.242-2.812-6.789-2.812s-4.988 1.012-6.788 2.812-2.812 4.242-2.812 6.788c0 2.546 1.012 4.988 2.812 6.788s4.242 2.812 6.788 2.812z"></path>
</svg>
