<!-- Generated by IcoMoon.io -->
<svg version="1.1" xmlns="http://www.w3.org/2000/svg" width="512" height="512" viewBox="0 0 512 512">
<title></title>
<g id="icomoon-ignore">
</g>
<path d="M426.901 112.438c-8.599-9.553-23.315-10.328-32.868-1.73l-128 115.2c-4.904 4.413-7.704 10.702-7.704 17.299 0 6.595 2.8 12.884 7.704 17.296l128 115.2c9.553 8.599 24.269 7.825 32.868-1.729 8.597-9.553 7.825-24.269-1.729-32.865l-108.781-97.901 108.781-97.903c9.553-8.599 10.326-23.314 1.729-32.867z"></path>
<path d="M247.696 112.438c-8.6-9.553-23.314-10.328-32.868-1.73l-128 115.2c-4.904 4.413-7.704 10.702-7.704 17.299 0 6.595 2.8 12.884 7.704 17.296l128 115.2c9.554 8.599 24.268 7.825 32.868-1.729 8.597-9.553 7.825-24.269-1.729-32.865l-108.781-97.901 108.781-97.903c9.553-8.599 10.326-23.314 1.729-32.867z"></path>
</svg>
