<!-- Generated by IcoMoon.io -->
<svg version="1.1" xmlns="http://www.w3.org/2000/svg" width="512" height="512" viewBox="0 0 512 512">
<title></title>
<g id="icomoon-ignore">
</g>
<path d="M85.111 112.438c8.598-9.553 23.313-10.328 32.867-1.73l128.001 115.2c4.904 4.413 7.703 10.702 7.703 17.299 0 6.595-2.799 12.884-7.703 17.296l-128.001 115.2c-9.553 8.599-24.269 7.825-32.867-1.729s-7.824-24.269 1.73-32.865l108.779-97.901-108.779-97.903c-9.553-8.599-10.328-23.314-1.73-32.867z"></path>
<path d="M264.315 112.438c8.599-9.553 23.313-10.328 32.868-1.73l128 115.2c4.904 4.413 7.704 10.702 7.704 17.299 0 6.595-2.8 12.884-7.704 17.296l-128 115.2c-9.556 8.599-24.269 7.825-32.868-1.729s-7.825-24.269 1.729-32.865l108.779-97.901-108.779-97.903c-9.553-8.599-10.328-23.314-1.729-32.867z"></path>
</svg>
