<!-- Generated by IcoMoon.io -->
<svg version="1.1" xmlns="http://www.w3.org/2000/svg" width="541" height="512" viewBox="0 0 541 512">
<title></title>
<g id="icomoon-ignore">
</g>
<path d="M26.705 97.862c9.151 60.619 36.734 176.846 122.044 262.157 88.185 88.183 212.234 124.601 276.842 138.675l0.029 0.005c55.043 11.952 100.614-31.704 100.614-82.683v-74.101c0-18.885-11.662-35.806-29.309-42.53l-80.262-30.577c-7.925-3.019-81.226 14.022-89.552 15.635zM480.723 341.916v74.101c0 24.667-21.359 43.438-45.445 38.207-62.356-13.582-175.677-47.719-254.347-126.387-74.906-74.906-100.544-179.255-109.228-236.794-3.495-23.053 14.865-42.322 38.187-42.322h77.553l30.083 80.013-15.92 85.389c20.675 51.688 56.196 84.851 113.715 113.714l85.14-16.498 80.262 30.578zM327.111 284.445c-37.248-20.657-63.94-46.714-78.189-75.802l13.343-71.569c1.522-8.162 0.781-16.585-2.14-24.358l-30.083-80.013c-6.672-17.744-23.643-29.495-42.6-29.495h-77.553c-48.096 0-91.28 41.126-83.184 94.653z"></path>
</svg>
