<!-- Generated by IcoMoon.io -->
<svg version="1.1" xmlns="http://www.w3.org/2000/svg" width="512" height="512" viewBox="0 0 512 512">
<title></title>
<g id="icomoon-ignore">
</g>
<path d="M183.188 175.7l55.424-111.616c1.613-3.23 4.095-5.947 7.166-7.846s6.611-2.904 10.221-2.904c3.61 0 7.15 1.006 10.22 2.904 3.072 1.899 5.553 4.616 7.166 7.846l55.424 111.616 123.904 18.006c3.574 0.495 6.937 1.986 9.704 4.301s4.828 5.362 5.947 8.792c1.119 3.43 1.251 7.106 0.38 10.607s-2.707 6.688-5.301 9.196l-89.642 86.827 21.163 122.666c2.709 15.744-13.931 27.733-28.16 20.31l-110.805-57.942-110.827 57.942c-14.208 7.445-30.848-4.565-28.138-20.331l21.162-122.666-89.643-86.827c-2.581-2.51-4.407-5.692-5.27-9.188-0.862-3.496-0.727-7.163 0.391-10.585s3.173-6.462 5.933-8.774c2.76-2.313 6.112-3.804 9.678-4.306l123.904-18.026z"></path>
</svg>
