<!-- Generated by IcoMoon.io -->
<svg version="1.1" xmlns="http://www.w3.org/2000/svg" width="512" height="512" viewBox="0 0 512 512">
<title></title>
<g id="icomoon-ignore">
</g>
<path d="M475 208.6c-0.497-2.237-1.467-4.34-2.849-6.169-1.38-1.828-3.136-3.339-5.151-4.43l-47.601-26.4c-2.55-5.174-5.422-10.184-8.599-15l1.001-54.4c0.018-2.281-0.435-4.543-1.329-6.642-0.896-2.099-2.214-3.991-3.873-5.558-23.7-21.489-51.73-37.651-82.199-47.4-2.189-0.682-4.495-0.892-6.771-0.617s-4.467 1.032-6.428 2.217l-46.599 28c-5.801-0.2-11.401-0.2-17.201 0l-46.6-28c-1.962-1.185-4.153-1.941-6.428-2.216s-4.583-0.066-6.772 0.617c-30.511 9.756-58.552 25.994-82.2 47.6-1.673 1.513-3.003 3.367-3.9 5.436s-1.341 4.308-1.3 6.564l1 54.4c-3.2 4.8-6 9.8-8.8 15l-47.6 26.4c-1.986 1.102-3.71 2.62-5.056 4.449s-2.282 3.928-2.744 6.151c-6.8 31.234-6.8 63.566 0 94.801 0.497 2.235 1.468 4.339 2.849 6.167 1.38 1.83 3.137 3.341 5.151 4.431l47.6 26.401c2.552 5.174 5.424 10.183 8.6 14.999l-1 54.4c-0.018 2.281 0.434 4.544 1.329 6.643s2.213 3.991 3.871 5.558c23.7 21.488 51.73 37.65 82.2 47.399 2.189 0.683 4.496 0.894 6.772 0.617 2.275-0.274 4.466-1.031 6.429-2.217l46.6-27.998h17.201l46.8 27.998c2.432 1.6 5.289 2.437 8.2 2.401 1.625-0.072 3.238-0.341 4.8-0.801 30.51-9.756 58.553-25.991 82.199-47.598 1.674-1.513 3.003-3.369 3.901-5.438 0.896-2.071 1.339-4.308 1.3-6.564l-1.001-54.4c3.2-4.8 6-9.8 8.798-14.999l47.601-26.401c1.986-1.101 3.709-2.619 5.056-4.45 1.346-1.828 2.284-3.927 2.745-6.149 6.802-31.235 6.802-63.567 0-94.801zM445 289.6l-45.399 25.2c-2.88 1.674-5.182 4.185-6.599 7.199-3.292 6.817-7.101 13.371-11.399 19.602-1.828 2.793-2.8 6.060-2.8 9.398l0.798 51.801c-17.219 14.661-36.93 26.11-58.199 33.8l-44.601-26.8c-2.488-1.449-5.32-2.209-8.2-2.199h-1.2c-7.588 0.599-15.211 0.599-22.799 0-3.279-0.179-6.541 0.584-9.4 2.199l-44.6 26.8c-21.243-7.654-40.951-19.031-58.2-33.6l0.8-52.002c-0.001-3.338-0.974-6.605-2.8-9.398-4.225-6.277-8.034-12.825-11.4-19.602-1.477-2.974-3.765-5.471-6.6-7.199l-45.4-25.2c-4.002-22.221-4.002-44.978 0-67.2l45.4-25.2c2.88-1.674 5.183-4.185 6.6-7.2 3.29-6.817 7.102-13.369 11.4-19.6 1.826-2.796 2.799-6.061 2.8-9.4l-0.8-51.8c17.219-14.662 36.933-26.11 58.2-33.8l44.6 26.8c2.851 1.637 6.119 2.402 9.4 2.2 7.588-0.6 15.212-0.6 22.799 0 3.279 0.179 6.541-0.585 9.401-2.2l44.601-26.8c21.243 7.653 40.95 19.031 58.199 33.6l-0.798 52c0 3.339 0.973 6.605 2.8 9.4 4.224 6.276 8.034 12.824 11.399 19.6 1.477 2.975 3.763 5.47 6.599 7.2l45.399 25.2c4.002 22.221 4.002 44.979 0 67.2zM256 144c-22.151 0-43.805 6.569-62.224 18.875s-32.774 29.798-41.25 50.264c-8.477 20.465-10.695 42.986-6.374 64.71 4.321 21.726 14.988 41.682 30.652 57.346 15.663 15.662 35.62 26.329 57.346 30.651s44.245 2.104 64.712-6.372c20.464-8.478 37.957-22.832 50.263-41.252 12.306-18.416 18.875-40.072 18.875-62.224 0-29.704-11.799-58.192-32.804-79.196s-49.493-32.804-79.196-32.804zM256 336c-15.822 0-31.289-4.692-44.445-13.483-13.156-8.788-23.41-21.284-29.464-35.901s-7.639-30.704-4.553-46.222c3.087-15.518 10.706-29.773 21.894-40.962s25.443-18.808 40.962-21.894c15.518-3.087 31.604-1.502 46.222 4.553s27.113 16.309 35.904 29.465c8.788 13.156 13.481 28.623 13.481 44.446 0 21.218-8.428 41.566-23.432 56.569-15.002 15.004-35.351 23.431-56.568 23.431z"></path>
</svg>
