<!-- Generated by IcoMoon.io -->
<svg version="1.1" xmlns="http://www.w3.org/2000/svg" width="512" height="512" viewBox="0 0 512 512">
<title></title>
<g id="icomoon-ignore">
</g>
<path d="M191.151 84.478v44.373h129.706v-44.373h-129.706zM64.005 169.812c-11.311 0-20.48-9.169-20.48-20.48s9.169-20.48 20.48-20.48h86.186v-52.053c0-8.826 3.506-17.291 9.748-23.532s14.706-9.748 23.532-9.748h145.066c8.827 0 17.293 3.506 23.534 9.748s9.746 14.706 9.746 23.532v52.053h86.188c11.31 0 20.48 9.169 20.48 20.48s-9.17 20.48-20.48 20.48h-384z"></path>
<path d="M106.668 133.119c11.311 0 20.48 9.169 20.48 20.48v272.091c5.295 0.327 11.609 0.62 18.079 0.87 8.12 0.315 16.293 0.555 22.654 0.717 3.178 0.082 5.89 0.144 7.902 0.185l2.442 0.046 0.732 0.010c0.202 0.002 0.266 0.002 0.244 0.002h166.4c-0.002 0 0.215-0.002 0.776-0.013l2.007-0.043c1.649-0.041 3.848-0.103 6.418-0.182 5.14-0.161 11.692-0.402 18.183-0.714 4.19-0.2 8.261-0.428 11.87-0.676v-272.293c0-11.311 9.168-20.48 20.48-20.48 11.31 0 20.48 9.169 20.48 20.48v281.601c0 8.827-3.507 17.29-9.748 23.531-2.736 2.736-5.584 4.039-6.582 4.48-1.341 0.591-2.532 0.962-3.305 1.18-1.559 0.443-3.075 0.727-4.201 0.914-2.35 0.389-5.104 0.691-7.821 0.94-5.538 0.505-12.488 0.914-19.21 1.236-13.366 0.642-27.151 0.998-29.348 0.998h-166.399c-2.103 0-19.017-0.351-35.556-0.99-8.303-0.32-16.792-0.724-23.45-1.216-3.279-0.24-6.446-0.527-9.034-0.88-1.242-0.169-2.809-0.412-4.366-0.784-0.756-0.182-1.966-0.497-3.33-1.022l-0.043-0.018c-0.84-0.322-4.296-1.649-7.487-4.839-6.242-6.241-9.748-14.704-9.748-23.531v-281.601c0-11.311 9.169-20.48 20.48-20.48z"></path>
</svg>
