<!-- Generated by IcoMoon.io -->
<svg version="1.1" xmlns="http://www.w3.org/2000/svg" width="32" height="32" viewBox="0 0 32 32">
<title>vertical-active</title>
<path fill="#252b5c" d="M17.778 23.111c0-2.945 2.388-5.333 5.333-5.333h3.556c2.945 0 5.333 2.388 5.333 5.333v3.556c0 2.945-2.388 5.333-5.333 5.333h-3.556c-2.946 0-5.333-2.388-5.333-5.333v-3.556z"></path>
<path fill="#252b5c" d="M0 23.111c0-2.945 2.388-5.333 5.333-5.333h3.556c2.946 0 5.333 2.388 5.333 5.333v3.556c0 2.945-2.388 5.333-5.333 5.333h-3.556c-2.946 0-5.333-2.388-5.333-5.333v-3.556z"></path>
<path fill="#a1a5c1" d="M17.778 5.333c0-2.946 2.388-5.333 5.333-5.333h3.556c2.945 0 5.333 2.388 5.333 5.333v3.556c0 2.946-2.388 5.333-5.333 5.333h-3.556c-2.946 0-5.333-2.388-5.333-5.333v-3.556z"></path>
<path fill="#252b5c" d="M0 5.333c0-2.946 2.388-5.333 5.333-5.333h3.556c2.946 0 5.333 2.388 5.333 5.333v3.556c0 2.946-2.388 5.333-5.333 5.333h-3.556c-2.946 0-5.333-2.388-5.333-5.333v-3.556z"></path>
</svg>
